<svg xmlns="http://www.w3.org/2000/svg" width="24" height="24" viewBox="0 0 24 24" fill="none" stroke="currentColor" stroke-width="2" stroke-linecap="round" stroke-linejoin="round" class="lucide lucide-stethoscope"><path d="M4.8 2.3A.3.3 0 1 0 5 2a.3.3 0 0 0-.2.3Z"/><path d="M6.5 3.5a2.5 2.5 0 1 1-5 0 2.5 2.5 0 0 1 5 0Z"/><path d="M6.5 3.5c0 .9-.5 1.7-1 2"/><path d="M8 6V4a2 2 0 0 1 2-2h4a2 2 0 0 1 2 2v2"/><path d="M8 14v1a2 2 0 0 0 2 2h4a2 2 0 0 0 2-2v-1"/><path d="M12 14v-4"/><path d="M12 10a8 8 0 0 0-8 8v1a2 2 0 0 0 2 2h12a2 2 0 0 0 2-2v-1a8 8 0 0 0-8-8Z"/></svg>
